PathFileType	4	(X/Y/Z)	/Users/niels/Desktop/University/Third Semester/Perception and Action/Exam/Gymnastics Motion Tracking/Code for Gym Tracking/Analyzed Data/Backflip/backflip_good_idn_2_Sports2D/backflip_good_idn_2_Sports2D_px_person00.trc
DataRate	CameraRate	NumFrames	NumMarkers	Units	OrigDataRate	OrigDataStartFrame	OrigNumFrames
59.762675296655885	59.762675296655885	9	22	m	59.762675296655885	139	278
Frame#	Time	Hip			RHip			RKnee			RAnkle			RBigToe			RSmallToe			RHeel			LHip			LKnee			LAnkle			LBigToe			LSmallToe			LHeel			Neck			Head			Nose			RShoulder			RElbow			RWrist			LShoulder			LElbow			LWrist		
		X1	Y1	Z1	X2	Y2	Z2	X3	Y3	Z3	X4	Y4	Z4	X5	Y5	Z5	X6	Y6	Z6	X7	Y7	Z7	X8	Y8	Z8	X9	Y9	Z9	X10	Y10	Z10	X11	Y11	Z11	X12	Y12	Z12	X13	Y13	Z13	X14	Y14	Z14	X15	Y15	Z15	X16	Y16	Z16	X17	Y17	Z17	X18	Y18	Z18	X19	Y19	Z19	X20	Y20	Z20	X21	Y21	Z21	X22	Y22	Z22
139	2.3258664259927793	1.057543944577258	-0.5826181597630177	0.0	1.0520062979054627	-0.5815559616622404	0.0	1.0589369916518316	-0.6816221092741835	0.0	1.0434035994429967	-0.7720302586315377	0.0	1.075370562339079	-0.7766813218006543	0.0	1.061025454222368	-0.7813938391089752	0.0	1.0345653175668112	-0.7793159960029041	0.0	1.06580275389902	-0.5824544702682807	0.0	1.077659250577668	-0.6807986428217613	0.0	1.0537694639446888	-0.767200809817294	0.0	1.0837677920526834	-0.7774142950206826	0.0	1.079501551165498	-0.7714815396466036	0.0	1.0451846102107754	-0.7741548703394676	0.0	1.0998790882652751	-0.4634045960865252	0.0	1.1282569046522797	-0.405858811190389	0.0	1.1349089028799535	-0.44379657265935146	0.0	1.0957381233149335	-0.4770666739131994	0.0	1.1169486326988116	-0.54476527633386	0.0	1.1491235567527136	-0.6023006254980292	0.0	1.0932133126388446	-0.4756325936687087	0.0	1.1063023331111836	-0.5436882828976296	0.0	1.1269668751695403	-0.6006072597189491	0.0
140	2.342599277978339	1.0582244968196333	-0.5840598031086941	0.0	1.052950142338031	-0.5831543089118184	0.0	1.059560588829428	-0.6830588324383993	0.0	1.0435353651720358	-0.7730182493053259	0.0	1.075187000768137	-0.7774143357332614	0.0	1.0607580683686593	-0.7821340707362313	0.0	1.034788442660868	-0.7800933062716464	0.0	1.0663737129376065	-0.5841215540761634	0.0	1.077875484267514	-0.6819865666593048	0.0	1.0537527529019461	-0.7682425387398819	0.0	1.0836315320791923	-0.7778176507052008	0.0	1.0789037615697816	-0.7721746250213374	0.0	1.0449116548121766	-0.7745624141874817	0.0	1.0999704550512805	-0.4640884051766755	0.0	1.1286722329345684	-0.4072897455447902	0.0	1.1351402698136914	-0.44491006321272114	0.0	1.0954811323977545	-0.47861106245174645	0.0	1.1116332232861503	-0.5475237107360905	0.0	1.139209048973644	-0.6072158302958922	0.0	1.092643684154584	-0.47642359443952353	0.0	1.1000542342122899	-0.5450648592297668	0.0	1.117022276508929	-0.6042852977389929	0.0
141	2.3593321299638985	1.0589537228061263	-0.5854909318020186	0.0	1.0539710498116985	-0.5847266260003012	0.0	1.0602299770978432	-0.6844053232440488	0.0	1.0437334244747114	-0.7739588927871333	0.0	1.0751511146308874	-0.7782111838202073	0.0	1.0607251972634955	-0.7829448399746769	0.0	1.035087252497485	-0.7808267526221915	0.0	1.066927129185628	-0.5857634385925866	0.0	1.078029173815305	-0.6830769860928422	0.0	1.0537324683370846	-0.7692359975901053	0.0	1.0835638710785644	-0.77824638220031	0.0	1.0783567714859463	-0.7728851107326618	0.0	1.044559702575166	-0.7749405295949757	0.0	1.0999735586602164	-0.4646360332200774	0.0	1.129086871475056	-0.40860388397206376	0.0	1.135326161176337	-0.4459062613681897	0.0	1.0950691390271905	-0.4798859290532401	0.0	1.1061396992849388	-0.5494073699292186	0.0	1.1289608881180613	-0.6106873160172209	0.0	1.0920973793997193	-0.477063844401071	0.0	1.093880906700083	-0.5457879174317383	0.0	1.1076000145359624	-0.6067025234742814	0.0
142	2.376064981949458	1.0597380290478486	-0.5868731192971016	0.0	1.05504615262028	-0.5862371819261467	0.0	1.0609312289271295	-0.6856186274947094	0.0	1.0440012715845812	-0.7748183513241735	0.0	1.0752622447533255	-0.7790286802505383	0.0	1.0609070725559502	-0.7837933721149045	0.0	1.0354569902908948	-0.7814953534998653	0.0	1.067470891261759	-0.5873325188281071	0.0	1.078114502506967	-0.6840407470222145	0.0	1.0537023561619137	-0.7701557378057672	0.0	1.083531143226771	-0.7786975691690182	0.0	1.0778902496035379	-0.773605626223169	0.0	1.044134900758786	-0.7753103038572937	0.0	1.099898695166895	-0.46504800091803106	0.0	1.1294985845054835	-0.40977247254944155	0.0	1.1354759846248077	-0.44675800472517707	0.0	1.0945102966553835	-0.4808537632489204	0.0	1.1005318879069934	-0.5503667620824438	0.0	1.1184775092617387	-0.612622101125003	0.0	1.0916224837069237	-0.47755765633627006	0.0	1.087989052622709	-0.5459053405119386	0.0	1.0988991501586813	-0.6078688832746675	0.0
143	2.3927978339350178	1.0605910216522323	-0.5881603355089551	0.0	1.056155585072437	-0.5876425679011446	0.0	1.0616455961832425	-0.6866594543564452	0.0	1.0443384322270377	-0.7755654838612451	0.0	1.0754942946313852	-0.7798191167380889	0.0	1.0612763988782121	-0.7846272269061005	0.0	1.0358944643933745	-0.782080904584921	0.0	1.0680261898179888	-0.5887760115478632	0.0	1.0781202686755378	-0.6848592684306406	0.0	1.0536598804277442	-0.7709888671868503	0.0	1.083513932250459	-0.7791629454405492	0.0	1.0775189600001602	-0.774330094539553	0.0	1.0436589095677065	-0.775693617651964	0.0	1.0997619786798725	-0.4653190926140039	0.0	1.1299125701043318	-0.41076468201384614	0.0	1.135606073156487	-0.44744103408112196	0.0	1.0938197633440765	-0.48148091141988186	0.0	1.0948832661242998	-0.550373106115997	0.0	1.107865249259428	-0.6129499980406942	0.0	1.0912576986352034	-0.4779046788406495	0.0	1.0825614787028475	-0.5454585951427389	0.0	1.0909542158941439	-0.6078048775161966	0.0
144	2.4095306859205774	1.0615282290423074	-0.58929882984205	0.0	1.0572836103082115	-0.5888915121623332	0.0	1.062346712388147	-0.687493857005899	0.0	1.0447402171623559	-0.776171692885988	0.0	1.075800572403823	-0.7805352591418299	0.0	1.0618053564459144	-0.7853799236594551	0.0	1.0363978912568317	-0.7825632441382767	0.0	1.0686267508212206	-0.5900391877312334	0.0	1.0780297611847207	-0.6855226233196794	0.0	1.0536110892350012	-0.7717274129296218	0.0	1.0835099141323452	-0.779630213433866	0.0	1.0772465259412811	-0.775052721291532	0.0	1.043170918607133	-0.7761043580230558	0.0	1.099585040308487	-0.46543851562149346	0.0	1.1303389489242357	-0.4115502556892097	0.0	1.1357365606418215	-0.44793334594695683	0.0	1.0930208892518523	-0.4817437807518516	0.0	1.0892750168875918	-0.5494187683685529	0.0	1.0972383562813401	-0.6116263294941173	0.0	1.0910284628909772	-0.4780987549101981	0.0	1.077727420834442	-0.5444806777383719	0.0	1.0836863844897389	-0.6065382529585251	0.0
145	2.426263537906137	1.0625551720963062	-0.5902350526414343	0.0	1.0584142363100977	-0.5899301963944757	0.0	1.0630029130724103	-0.6880965613273412	0.0	1.0451981718649688	-0.7766113290953182	0.0	1.076128798211627	-0.78113629801052	0.0	1.062466175851499	-0.7859875541315241	0.0	1.0369658963797161	-0.7829191337586175	0.0	1.0693049882121404	-0.5910705351812154	0.0	1.0778278289412235	-0.6860242004703662	0.0	1.0535683559565083	-0.7723559369884194	0.0	1.083520355355457	-0.7800833044503116	0.0	1.0770682404527594	-0.7757610543486425	0.0	1.0427197861206232	-0.7765383632992757	0.0	1.0993925691926298	-0.4653920340521991	0.0	1.130789486643647	-0.41210231370136835	0.0	1.13588707269812	-0.4482141866297252	0.0	1.092144317759532	-0.4816330957480366	0.0	1.083791937283005	-0.5475147179170381	0.0	1.0867188396463323	-0.6086360870317681	0.0	1.0909421053325972	-0.4781276683149108	0.0	1.0735456474474026	-0.5429963030725492	0.0	1.0769757550677577	-0.6041022597229296	0.0
146	2.442996389891696	1.0636541902416154	-0.590924221264624	0.0	1.0595222951946235	-0.590708362610837	0.0	1.0635838793689447	-0.6884499633045308	0.0	1.0457009968961974	-0.7768623495718014	0.0	1.0764373111402563	-0.7815913818836752	0.0	1.0632316238297534	-0.7864029075969373	0.0	1.0375970841485473	-0.7831255653420794	0.0	1.0700698154509458	-0.5918246012840005	0.0	1.077508713074511	-0.6863525433230726	0.0	1.053544482563929	-0.7728457587084744	0.0	1.0835383610832998	-0.78050141222186	0.0	1.0769741957390202	-0.77643003413164	0.0	1.042352637274226	-0.7769700457430937	0.0	1.0992071157873682	-0.46516537423848175	0.0	1.1312765870194617	-0.4124002231083637	0.0	1.1360740524106832	-0.4482656708806727	0.0	1.0912237430953702	-0.4811533087458298	0.0	1.07851568658479	-0.5446866863539848	0.0	1.0764349506143742	-0.6039967757447937	0.0	1.0909853950334165	-0.47797401925291366	0.0	1.070007825623212	-0.541023960464335	0.0	1.070705883796728	-0.6005361978760448	0.0
147	2.459729241877256	1.0647779098298829	-0.591331422929406	0.0	1.0605657148941574	-0.5911820905952696	0.0	1.0640665478101565	-0.6885403111665931	0.0	1.0462357274183114	-0.7769055494000648	0.0	1.0767001244127898	-0.7818794648751869	0.0	1.0640748738154138	-0.7865987214477327	0.0	1.038287740496249	-0.7831620781509498	0.0	1.070894482631795	-0.5922622225393337	0.0	1.0770783934804442	-0.6864871455680311	0.0	1.0535492273643279	-0.7731608929745462	0.0	1.0835468702685775	-0.7808615441084227	0.0	1.0769501420684535	-0.7770252203027167	0.0	1.0421056231147514	-0.7773584222084249	0.0	1.09904547929553	-0.4647484351755848	0.0	1.1318143990361058	-0.41243375721505593	0.0	1.1363097484550158	-0.44807707490096704	0.0	1.0902929177079972	-0.4803173501361281	0.0	1.0735186548111089	-0.5409705473154027	0.0	1.0665167415598649	-0.5977584709572661	0.0	1.0911290129125473	-0.47761651638781233	0.0	1.0670531052027268	-0.5385775016296005	0.0	1.0647778154040446	-0.5958882184090941	0.0
